HIERARCHY
ROOT root
{
	OFFSET 0.000000 0.000000 0.000000
	CHANNELS 6 Xposition Yposition Zposition Zrotation Yrotation Xrotation
	JOINT lhip
	{
		OFFSET 0.058581 -0.082280 -0.017664
		CHANNELS 3 Zrotation Yrotation Xrotation
		JOINT lknee
		{
			OFFSET 0.043451 -0.386469 0.008037
			CHANNELS 3 Zrotation Yrotation Xrotation
			JOINT lankle
			{
				OFFSET -0.014790 -0.426874 -0.037428
				CHANNELS 3 Zrotation Yrotation Xrotation
				JOINT ltoe
				{
					OFFSET 0.041054 -0.060286 0.122042
					CHANNELS 3 Zrotation Yrotation Xrotation
					End Site
					{
						OFFSET 0.000000 0.000000 0.000000
					}
				}
			}
		}
	}
	JOINT rhip
	{
		OFFSET -0.060310 -0.090513 -0.013543
		CHANNELS 3 Zrotation Yrotation Xrotation
		JOINT rknee
		{
			OFFSET -0.043257 -0.383688 -0.004843
			CHANNELS 3 Zrotation Yrotation Xrotation
			JOINT rankle
			{
				OFFSET 0.019056 -0.420046 -0.034562
				CHANNELS 3 Zrotation Yrotation Xrotation
				JOINT rtoe
				{
					OFFSET -0.034840 -0.062106 0.130323
					CHANNELS 3 Zrotation Yrotation Xrotation
					End Site
					{
						OFFSET 0.000000 0.000000 0.000000
					}
				}
			}
		}
	}
	JOINT lowerback
	{
		OFFSET 0.004439 0.124404 -0.038385
		CHANNELS 3 Zrotation Yrotation Xrotation
		JOINT upperback
		{
			OFFSET 0.004488 0.137956 0.026820
			CHANNELS 3 Zrotation Yrotation Xrotation
			JOINT chest
			{
				OFFSET -0.002265 0.056032 0.002855
				CHANNELS 3 Zrotation Yrotation Xrotation
				JOINT lowerneck
				{
					OFFSET -0.013390 0.211636 -0.033468
					CHANNELS 3 Zrotation Yrotation Xrotation
					JOINT upperneck
					{
						OFFSET 0.010113 0.088937 0.050410
						CHANNELS 3 Zrotation Yrotation Xrotation
						End Site
						{
							OFFSET 0.000000 0.000000 0.000000
						}
					}
				}
				JOINT lclavicle
				{
					OFFSET 0.071702 0.114000 -0.018898
					CHANNELS 3 Zrotation Yrotation Xrotation
					JOINT lshoulder
					{
						OFFSET 0.122921 0.045205 -0.019046
						CHANNELS 3 Zrotation Yrotation Xrotation
						JOINT lelbow
						{
							OFFSET 0.255332 -0.015649 -0.022946
							CHANNELS 3 Zrotation Yrotation Xrotation
							JOINT lwrist
							{
								OFFSET 0.265709 0.012698 -0.007375
								CHANNELS 3 Zrotation Yrotation Xrotation
								End Site
								{
									OFFSET 0.000000 0.000000 0.000000
								}
							}
						}
					}
				}
				JOINT rclavicle
				{
					OFFSET -0.082954 0.112472 -0.023707
					CHANNELS 3 Zrotation Yrotation Xrotation
					JOINT rshoulder
					{
						OFFSET -0.113228 0.046853 -0.008472
						CHANNELS 3 Zrotation Yrotation Xrotation
						JOINT relbow
						{
							OFFSET -0.260127 -0.014369 -0.031269
							CHANNELS 3 Zrotation Yrotation Xrotation
							JOINT rwrist
							{
								OFFSET -0.269108 0.006794 -0.006027
								CHANNELS 3 Zrotation Yrotation Xrotation
								End Site
								{
									OFFSET 0.000000 0.000000 0.000000
								}
							}
						}
					}
				}
			}
		}
	}
}
MOTION
Frames: 8
Frame Time: 0.033333
1.035530 0.697140 0.987147 -82.224612 -2.441509 94.741849 1.338334 -4.551094 -14.072886 -11.156636 -2.612424 40.720119 2.860704 6.492236 -4.160329 0.000000 -0.000000 0.000000 -1.842279 -4.334647 -12.154803 2.161575 -0.337018 41.504024 5.655035 -7.563304 0.509248 0.000000 -0.000000 0.000000 -2.045342 6.705944 11.681044 0.053379 -2.223392 -0.896284 0.659472 1.886963 -0.188135 0.141981 4.001371 -11.816539 2.244391 -0.782976 -8.217868 1.843409 -23.510885 -12.351086 -33.261777 -27.234578 11.293125 -6.803228 -35.691553 16.523480 -13.580063 -6.117262 -3.899863 -2.947181 22.527974 -7.690869 13.400669 28.987667 -5.161077 -14.700931 41.915728 -2.490502 15.214914 -2.886094 -1.769803 
0.995734 0.693179 1.048288 -77.435018 -3.072367 90.993704 0.096265 -7.313403 -7.242285 -7.672506 -3.094682 32.636049 -3.144670 5.316488 15.287767 0.000000 -0.000000 0.000000 -1.959697 -2.708353 -5.536023 -0.670234 -0.903385 35.060818 11.055759 -6.676922 25.887283 0.000000 -0.000000 0.000000 -3.147162 6.897612 9.669026 -0.088611 -2.298036 0.483161 1.289308 1.510098 -1.224712 -0.534661 2.082252 -3.709162 4.313049 2.714500 -7.874709 -5.337046 -22.639070 -8.715244 -40.781297 -29.464371 16.021029 -4.953376 -28.109117 6.563735 -16.914888 -3.569643 2.769327 2.048564 19.435902 -4.078097 14.546070 24.552280 2.263430 -7.231958 43.701053 3.215304 8.546893 -2.848879 3.935654 
0.963929 0.690589 1.101168 -70.270294 -2.917008 89.280175 -0.277776 -8.112028 -5.115652 -5.072125 -3.408730 25.031865 -5.195246 7.000211 25.664202 0.000000 -0.000000 0.000000 -0.581959 -1.118231 -4.535196 0.423121 0.790156 32.312089 12.662849 -5.372592 37.132926 0.000000 -0.000000 0.000000 -2.866698 5.750337 8.559910 -0.792762 -2.454494 1.640256 1.166278 0.135867 -2.244634 -2.225227 0.153345 0.108505 5.222405 6.599526 -9.677472 -14.917844 -22.128465 -3.522965 -43.153432 -27.986066 14.860580 -2.846845 -23.241660 4.459673 -19.303287 -1.111959 5.873136 6.775067 16.026272 -0.311415 16.021296 18.186338 5.446308 -0.959762 45.751073 12.218764 7.860688 -1.694663 4.457853 
0.939496 0.687636 1.141470 -62.407167 -2.966812 89.247101 -1.250888 -7.033248 -6.154777 -4.022055 -1.159597 17.108071 -6.885977 7.373714 26.370916 0.000000 -0.000000 0.000000 -0.533735 -0.307214 -7.754792 0.141580 -1.617741 30.619938 12.896638 -8.043255 35.285983 0.000000 -0.000000 0.000000 -2.129907 4.318118 8.298519 -1.619535 -2.628900 2.174481 0.408465 -1.226103 -3.289970 -2.672737 0.105439 -1.156105 4.891556 8.790861 -8.504332 -22.597362 -21.904112 -0.633654 -44.134164 -25.889538 14.757735 -2.125779 -16.302849 7.028471 -20.820715 1.758087 15.743541 10.605034 12.650293 1.790898 18.154341 10.622884 8.743667 3.976069 44.627716 19.639645 9.224648 -2.118641 7.687590 
0.916782 0.685828 1.167897 -54.355537 -2.401432 88.953194 -2.991726 -5.176685 -6.866888 -3.044577 2.148367 9.625710 -7.510151 9.292951 31.884961 0.000000 -0.000000 0.000000 0.241655 0.955804 -9.379563 -1.653798 -0.552349 24.389673 12.057913 -7.518331 34.971221 0.000000 -0.000000 0.000000 -0.310721 2.415398 9.950170 -2.594916 -3.298038 1.811780 0.059301 -1.855554 -3.867760 -4.015847 0.863541 -3.482245 5.482678 11.887437 -7.262665 -25.852199 -23.082473 1.168118 -46.545883 -22.070834 15.735600 -2.127123 -11.792687 10.255925 -20.753451 4.972308 22.225742 10.962509 10.545703 2.622818 23.539497 2.277713 11.590489 8.335281 40.662156 27.597188 10.917192 -3.910438 11.157153 
0.894860 0.686107 1.180686 -46.449717 -1.527824 88.930960 -5.444884 -3.347072 -7.202918 -0.741074 5.263095 3.898643 -6.158788 11.075254 34.349823 0.000000 -0.000000 0.000000 0.535922 1.718164 -10.641409 -3.795350 1.313540 16.894616 11.241015 -8.110057 35.831331 0.000000 -0.000000 0.000000 1.359003 0.363541 11.685028 -3.235720 -3.778026 0.102054 0.235640 -2.526222 -3.144908 -5.117514 0.360664 -6.060083 6.536058 15.446113 -6.002626 -26.245110 -23.119968 3.508928 -50.442546 -19.889012 17.041158 -2.728088 -10.028073 15.010722 -19.915863 4.808250 23.724444 9.673584 8.942281 3.877450 30.528673 -4.373420 14.752157 10.714070 34.812005 34.115151 14.527934 -5.374125 14.395183 
0.867286 0.685569 1.183744 -38.817587 -0.213434 88.827967 -6.564043 -1.928516 -6.732466 0.269827 6.707163 1.384087 -5.114438 11.791346 35.070042 0.000000 -0.000000 0.000000 0.761327 1.211688 -11.424091 -4.170869 3.155428 11.744933 10.305291 -8.021706 35.020674 0.000000 -0.000000 0.000000 1.128471 0.136501 10.882676 -2.489741 -3.842855 0.313240 1.375613 -3.007731 -2.793399 -5.469515 -0.305508 -5.652030 7.839900 17.176575 -5.669616 -25.767841 -21.814884 5.162620 -54.385131 -18.661900 18.045943 -5.112254 -9.574125 19.470397 -19.419087 6.054669 22.866306 9.639714 6.722680 5.987655 36.517027 -11.301552 17.041691 12.443031 30.685993 40.023775 16.523831 -7.259725 18.995323 
0.837390 0.684773 1.176910 -31.293596 1.475238 88.388447 -5.869832 -2.340595 -6.555829 -0.240856 5.634059 3.098654 -4.529486 11.473622 35.406696 0.000000 -0.000000 0.000000 0.811870 1.195984 -11.297616 -3.603195 4.792485 8.484527 10.092370 -7.764287 35.031987 0.000000 -0.000000 0.000000 0.821152 0.673227 9.767322 -1.388071 -3.947677 0.197961 2.002528 -3.852382 -2.136654 -4.915158 -0.716043 -4.143612 8.691503 17.008451 -5.151729 -25.704917 -18.218055 5.701091 -55.640233 -17.452112 17.773775 -7.473482 -10.634326 22.995357 -20.619870 7.334289 20.310127 11.257944 3.227752 7.979039 41.578576 -16.818962 18.585265 13.162653 28.455919 43.449836 17.843246 -7.962856 19.404125 
